<?xml version="1.0" encoding="UTF-8"?>
<svg id="Layer_1" xmlns="http://www.w3.org/2000/svg" version="1.1" viewBox="0 0 272.68 93.45">
  <!-- Generator: Adobe Illustrator 29.8.5, SVG Export Plug-In . SVG Version: 2.1.1 Build 2)  -->
  <defs>
    <style>
      .st0 {
        fill: #e6f1ff;
      }
      .st1 {
        fill: #00e5ff;
      }
    </style>

    <!-- Glow for the cyan dash and .dev -->
    <filter id="cyanGlow" x="-40%" y="-400%" width="180%" height="900%">
      <feGaussianBlur in="SourceGraphic" stdDeviation="3" result="blur"/>
      <feMerge>
        <feMergeNode in="blur"/>
        <feMergeNode in="blur"/>
        <feMergeNode in="SourceGraphic"/>
      </feMerge>
    </filter>

    <!-- Stronger pulse glow for dash specifically -->
    <filter id="dashGlow" x="-60%" y="-600%" width="220%" height="1300%">
      <feGaussianBlur in="SourceGraphic" stdDeviation="4" result="blur"/>
      <feMerge>
        <feMergeNode in="blur"/>
        <feMergeNode in="blur"/>
        <feMergeNode in="blur"/>
        <feMergeNode in="SourceGraphic"/>
      </feMerge>
    </filter>

  </defs>

  <text/>
  <text/>
  <text/>
  <text/>
  <text/>

  <g>
    <!-- e·nova white letters — unchanged -->
    <path class="st0" d="M48.06,11.91H11.92v12.96h29.07v7.07H11.92v12.96h36.14v7.07H4.85V4.84h43.21v7.07Z"/>
    <path class="st0" d="M127.21,22.51v29.46h-7.07v-29.46c0-.79-.65-1.44-1.44-1.44h-21.6c-.79,0-1.44.65-1.44,1.44v29.46h-7.07V14h30.11c4.71,0,8.51,3.8,8.51,8.51Z"/>
    <path class="st0" d="M163.42,14c4.71,0,8.51,3.8,8.51,8.51v20.95c0,4.71-3.8,8.51-8.51,8.51h-21.6c-4.71,0-8.51-3.8-8.51-8.51v-20.95c0-4.71,3.8-8.51,8.51-8.51h21.6ZM141.82,21.07c-.79,0-1.44.65-1.44,1.44v20.95c0,.79.65,1.44,1.44,1.44h21.6c.79,0,1.44-.65,1.44-1.44v-20.95c0-.79-.65-1.44-1.44-1.44h-21.6Z"/>
    <path class="st0" d="M223.32,14l-20.95,37.97h-7.07l-20.95-37.97h8.18l16.3,29.98,16.37-29.98h8.12Z"/>
    <path class="st0" d="M266.73,22.51v29.46h-30.11c-4.71,0-8.51-3.8-8.51-8.51v-14.01h31.55v-6.94c0-.79-.65-1.44-1.44-1.44h-30.11v-7.07h30.11c4.71,0,8.51,3.8,8.51,8.51ZM259.66,36.52h-24.48v6.94c0,.79.65,1.44,1.44,1.44h23.04v-8.38Z"/>

    <!-- Cyan dash — glowing + pulsing fade -->
    <g filter="url(#dashGlow)">
      <path class="st1" d="M77.72,36.13h-19.12c-1.95,0-3.54-1.58-3.54-3.54h0c0-1.95,1.58-3.54,3.54-3.54h19.12c1.95,0,3.54,1.58,3.54,3.54h0c0,1.95-1.58,3.54-3.54,3.54Z">
        <animate attributeName="opacity" values="1;0.15;1" dur="2.4s" repeatCount="indefinite" calcMode="spline" keySplines="0.4 0 0.6 1; 0.4 0 0.6 1"/>
      </path>
    </g>

    <!-- .dev — glowing + same pulse slightly offset -->
    <g filter="url(#cyanGlow)">
      <path class="st1" d="M212.96,86.31h-2.82v-2.82h2.82v2.82Z">
        <animate attributeName="opacity" values="1;0.15;1" dur="2.4s" repeatCount="indefinite" calcMode="spline" keySplines="0.4 0 0.6 1; 0.4 0 0.6 1"/>
      </path>
      <path class="st1" d="M230.37,66.18v20.13h-12.26c-1.78,0-3.19-1.41-3.19-3.16v-8.83c0-1.75,1.41-3.16,3.19-3.16h10.12v-4.97h2.14ZM227.21,84.17c.55,0,1.02-.47,1.02-1.02v-8.83c0-.55-.47-1.02-1.02-1.02h-9.1c-.55,0-1.02.47-1.02,1.02v8.83c0,.55.47,1.02,1.02,1.02h9.1Z">
        <animate attributeName="opacity" values="1;0.15;1" dur="2.4s" repeatCount="indefinite" calcMode="spline" keySplines="0.4 0 0.6 1; 0.4 0 0.6 1"/>
      </path>
      <path class="st1" d="M248.02,74.31v5.49h-13.3v3.35c0,.55.47,1.02,1.02,1.02h12.29v2.14h-12.29c-1.75,0-3.16-1.41-3.16-3.16v-8.83c0-1.75,1.41-3.16,3.16-3.16h9.1c1.78,0,3.19,1.41,3.19,3.16ZM245.85,77.66v-3.35c0-.55-.44-1.02-1.02-1.02h-9.1c-.55,0-1.02.47-1.02,1.02v3.35h11.13Z">
        <animate attributeName="opacity" values="1;0.15;1" dur="2.4s" repeatCount="indefinite" calcMode="spline" keySplines="0.4 0 0.6 1; 0.4 0 0.6 1"/>
      </path>
      <path class="st1" d="M268.59,71.15l-8.39,15.16h-2.48c-2.77-5.1-5.59-10.09-8.36-15.16h2.51l7.11,13.07,7.11-13.07h2.51Z">
        <animate attributeName="opacity" values="1;0.15;1" dur="2.4s" repeatCount="indefinite" calcMode="spline" keySplines="0.4 0 0.6 1; 0.4 0 0.6 1"/>
      </path>
    </g>

  </g>
</svg>
